# xmcd
#
# Track frame offsets:
#	150
#	14923
#	27901
#	40580
#	57597
#	77983
#	92559
#	114898
#	130073
#	152529
#	171832
#	183888
#	195954
#	212042
#	226814
#	237706
#
# Disc length: 3330 seconds
#
# Revision: 0
# Processed by: cddbd v1.5.2PL0 Copyright (c) Steve Scherf et al.
# Submitted via: EasyCDDAExtractor 2010.4.0.0
#
DISCID=ca0d0010
DTITLE=Steffen Jakobsen - My Beginning
DYEAR=1900
DGENRE=Country
TTITLE0=Hard working man
TTITLE1=Doggone lonesome
TTITLE2=Truck driving son of a gun
TTITLE3=I don't have anymore love songs
TTITLE4=Family tradition
TTITLE5=Father's son
TTITLE6=Looking for a place to fall apart
TTITLE7=I'm bringing home some good news
TTITLE8=A country boy song
TTITLE9=What am i gonna do with the rest of my life
TTITLE10=Like a train left the tramp
TTITLE11=Brothers of the highway
TTITLE12=Hurt
TTITLE13=Whiskey bent and hell bound
TTITLE14=Would you lay with me
TTITLE15=Folsom prison blues
EXTD=
EXTT0=
EXTT1=
EXTT2=
EXTT3=
EXTT4=
EXTT5=
EXTT6=
EXTT7=
EXTT8=
EXTT9=
EXTT10=
EXTT11=
EXTT12=
EXTT13=
EXTT14=
EXTT15=
PLAYORDER=
